<?xml version="1.0" encoding="UTF-8"?>
<svg id="Layer_2" data-name="Layer 2" xmlns="http://www.w3.org/2000/svg" viewBox="0 0 211.08 59.15">
  <defs>
    <style>
      .cls-1 {
        fill: #fff;
      }

      .cls-2 {
        fill: #00e4aa;
      }
    </style>
  </defs>
  <g id="Layer_1-2" data-name="Layer 1">
    <g>
      <path class="cls-1" d="m46.2,34.14c-.93-1.84-2.28-3.41-4.05-4.71-1.77-1.3-3.91-2.4-6.43-3.31-2.52-.91-5.34-1.7-8.45-2.37-1.87-.41-3.41-.82-4.64-1.21-1.22-.39-2.18-.78-2.88-1.17-.7-.39-1.2-.82-1.48-1.29-.29-.46-.43-1.01-.43-1.63v-.15c0-.99.45-1.81,1.36-2.49.91-.67,2.27-1.01,4.09-1.01,2.44,0,4.97.46,7.6,1.36,2.62.91,5.18,2.25,7.67,4.01l7.56-10.71c-2.96-2.4-6.27-4.22-9.93-5.45-3.66-1.23-7.83-1.84-12.51-1.84-3.27,0-6.21.43-8.8,1.28s-4.82,2.06-6.66,3.62c-1.85,1.55-3.25,3.4-4.21,5.52-.96,2.12-1.44,4.46-1.44,7v.15c0,2.8.53,5.15,1.6,7.04s2.52,3.47,4.36,4.74c1.84,1.27,4.01,2.31,6.51,3.11,2.49.8,5.19,1.54,8.1,2.22,1.87.41,3.39.82,4.56,1.21s2.1.79,2.8,1.21c.7.41,1.18.84,1.44,1.28.26.44.39.95.39,1.52v.15c0,1.19-.53,2.11-1.6,2.76-1.06.65-2.61.97-4.64.97-6.34,0-12.23-2.18-17.69-6.54L0,49.51c3.38,3.03,7.26,5.31,11.65,6.82,4.39,1.52,9.02,2.27,13.91,2.27,3.32,0,6.34-.4,9.04-1.21,2.7-.8,5.01-1.97,6.94-3.5,1.92-1.53,3.41-3.38,4.48-5.56,1.06-2.18,1.6-4.66,1.6-7.47v-.16c0-2.54-.47-4.73-1.4-6.57Z"/>
      <path class="cls-1" d="m104.91,19.26c-.34-.79-.71-1.56-1.11-2.3-1.34-2.48-3-4.7-5-6.66-2.6-2.54-5.69-4.56-9.27-6.04-3.59-1.48-7.48-2.22-11.69-2.22s-8.1.74-11.69,2.22c-3.58,1.48-6.7,3.51-9.35,6.08-2.65,2.57-4.71,5.58-6.19,9.04-1.48,3.45-2.22,7.13-2.22,11.02v.16c0,3.9.74,7.56,2.22,10.99,1.48,3.43,3.52,6.42,6.12,8.96,2.6,2.54,5.69,4.56,9.27,6.04,3.58,1.48,7.48,2.22,11.69,2.22s8.1-.74,11.69-2.22c3.58-1.48,6.7-3.51,9.35-6.08,2.65-2.57,4.71-5.58,6.19-9.04,1.4-3.27,2.14-6.73,2.22-10.39,0-.21,0-.42,0-.64v-.16c0-3.89-.74-7.56-2.22-10.99Zm-13.2,11.3c0,1.97-.34,3.84-1.02,5.61-.68,1.77-1.61,3.31-2.81,4.64-1.2,1.33-2.66,2.38-4.38,3.16-1.72.78-3.62,1.17-5.7,1.17s-3.98-.4-5.7-1.21c-1.72-.8-3.19-1.88-4.41-3.23-1.22-1.35-2.18-2.91-2.85-4.68-.68-1.77-1.01-3.63-1.01-5.61v-.16c0-1.97.32-3.84.98-5.61.65-1.77,1.59-3.31,2.81-4.64,1.22-1.33,2.68-2.38,4.38-3.16,1.69-.78,3.58-1.17,5.66-1.17s3.98.4,5.7,1.21c1.72.81,3.2,1.88,4.45,3.23,1.25,1.35,2.21,2.91,2.89,4.68.68,1.77,1.02,3.64,1.02,5.61v.16Z"/>
      <path class="cls-2" d="m157.88,20.54l-.04-.15c-.91-3.84-2.41-7.21-4.51-10.1-2.1-2.89-4.7-5.2-7.8-6.92-3.1-1.72-6.66-2.79-10.68-3.2-4.02-.41-8.41-.05-13.16,1.07l-20.47,4.84,2.57,10.88,3.33,14.08,6.65,28.11,20.17-4.77c4.75-1.12,8.85-2.8,12.3-5.03,3.45-2.23,6.18-4.84,8.2-7.82,2.01-2.98,3.32-6.27,3.92-9.85.59-3.58.44-7.3-.47-11.14Zm-16.64,14.66c-2.14,2.96-5.42,4.96-9.83,6.01l-6.01,1.42-6.38-26.99,6.01-1.42c4.41-1.05,8.24-.71,11.49,1.01,3.25,1.71,5.37,4.69,6.38,8.94l.04.15c1.02,4.3.45,7.93-1.69,10.89Z"/>
      <path class="cls-1" d="m187.86,2.74h-14.57l-15.32,36.23c-.45,1.06.52,2.18,1.63,1.88.68-.19,1.4-.29,2.14-.29,3.74,0,6.9,2.54,7.84,5.99.22.81.98,1.37,1.82,1.37h19.49s3.97,9.74,3.97,9.74h16.21L187.86,2.74Zm-13.56,33.5l6.16-15.5,6.08,15.5h-12.23Z"/>
      <path class="cls-2" d="m161,41.88c-3.18.34-5.74,2.9-6.08,6.08-.46,4.37,3.2,8.03,7.57,7.57,3.18-.34,5.74-2.9,6.08-6.08.46-4.37-3.2-8.03-7.57-7.57Z"/>
    </g>
  </g>
</svg>